inDegrees=no
num_controls=7
num_derivatives=13
num_iterations=117
num_multipliers=7
num_parameters=0
num_slacks=7
num_states=26
objective=0.447623
objective_accelerations=0.050297
objective_balance=0.007539
objective_effort=0.037102
objective_height=0.347746
objective_ligament=0.004939
solver_duration=1755.216222
status=Solve_Succeeded
success=true
DataType=double
version=3
OpenSimVersion=4.5
endheader
time	/jointset/ground_pelvis/pelvis_tilt/value	/jointset/ground_pelvis/pelvis_tx/value	/jointset/ground_pelvis/pelvis_ty/value	/jointset/hip_l/hip_flexion_l/value	/jointset/hip_l/hip_adduction_l/value	/jointset/hip_l/hip_rotation_l/value	/jointset/back/lumbar_extension/value	/jointset/patellofemoral_l/patellar_flexion_l/value	/jointset/knee_l/knee_flexion_l/value	/jointset/knee_l/knee_adduction_l/value	/jointset/knee_l/knee_rotation_l/value	/jointset/ankle_l/ankle_angle_l/value	/jointset/subtalar_l/subtalar_angle_l/value	/jointset/ground_pelvis/pelvis_tilt/speed	/jointset/ground_pelvis/pelvis_tx/speed	/jointset/ground_pelvis/pelvis_ty/speed	/jointset/hip_l/hip_flexion_l/speed	/jointset/hip_l/hip_adduction_l/speed	/jointset/hip_l/hip_rotation_l/speed	/jointset/back/lumbar_extension/speed	/jointset/patellofemoral_l/patellar_flexion_l/speed	/jointset/knee_l/knee_flexion_l/speed	/jointset/knee_l/knee_adduction_l/speed	/jointset/knee_l/knee_rotation_l/speed	/jointset/ankle_l/ankle_angle_l/speed	/jointset/subtalar_l/subtalar_angle_l/speed	/forceset/tau_hip_flexion_l	/forceset/tau_hip_adduction_l	/forceset/tau_hip_rotation_l	/forceset/tau_knee_flexion_l	/forceset/tau_ankle_angle_l	/forceset/tau_subtalar_angle_l	/forceset/tau_lumbar_extension	lambda_cid13_p0	lambda_cid13_p1	lambda_cid13_p2	lambda_cid13_p3	lambda_cid13_p4	lambda_cid13_p5	lambda_cid14_p0	/jointset/ground_pelvis/pelvis_tilt/accel	/jointset/ground_pelvis/pelvis_tx/accel	/jointset/ground_pelvis/pelvis_ty/accel	/jointset/hip_l/hip_flexion_l/accel	/jointset/hip_l/hip_adduction_l/accel	/jointset/hip_l/hip_rotation_l/accel	/jointset/back/lumbar_extension/accel	/jointset/patellofemoral_l/patellar_flexion_l/accel	/jointset/knee_l/knee_flexion_l/accel	/jointset/knee_l/knee_adduction_l/accel	/jointset/knee_l/knee_rotation_l/accel	/jointset/ankle_l/ankle_angle_l/accel	/jointset/subtalar_l/subtalar_angle_l/accel	gamma_cid13_p0	gamma_cid13_p1	gamma_cid13_p2	gamma_cid13_p3	gamma_cid13_p4	gamma_cid13_p5	gamma_cid14_p0
0.5	-0.448939431671706	-0.07658754457632562	0.7608820616706062	1.275028557885261	-0.3100572075162296	-0.04449239222906089	-0.3311157147528853	0.6946867963665714	0.6946867963665802	-0.1733029559786164	0.1744967942706049	0.03470881887481314	-0.04992109946634822	-0.747501966675311	-0.2749204805201693	-0.5067907666737086	2.408187544537421	-0.03231008213142062	0.6258648962227915	-0.6208998249832497	1.796174757841492	1.796174757841477	-0.006087749065514617	0.00116812392626541	0.2309012218385799	-0.007963011638566138	-0.2467546314624386	0.01839944483379716	-0.02164419419576144	-0.2050051903553177	0.1465900684766811	0.0404066004416668	0.2216868691580356	8.205908685119093	-21.66697238130225	6.114910533005046	-5.9176526842239	-607.4659949580015	-57.61640728310856	-27.97469867506258	0.6436601424094938	0.7222494204868752	-0.3235998396639875	-1.55314296565744	0.6221298800731873	-0.2848594814200293	1.815242995776728	-1.109758041391056	-1.10975804139105	0.04226187705894034	-0.04145872225962902	-0.134278244447641	0.602211994761486	-2.961257669500419e-07	-7.724503685927233e-07	1.463008917875828e-06	9.348054859450231e-08	-3.823455859326258e-07	7.968001464234233e-08	-3.22125877640278e-07
0.51	-0.456380682800762	-0.07930036005053628	0.7557990421428774	1.299028538797227	-0.3103507837941318	-0.03824789305283526	-0.3372340811267615	0.7125900649417733	0.7125900649417555	-0.1733649700209081	0.1745067443827817	0.03701003221111112	-0.04997235955226863	-0.7406539576836223	-0.2676229471447646	-0.5097103592999392	2.391501508252414	-0.02642003338891803	0.6229354322204185	-0.6027165108892708	1.784240261218729	1.78424026121876	-0.006301988787998004	0.0008415828118141994	0.2292878452639746	-0.002305832168507704	-0.2548947200398576	0.0189603728387443	-0.02174854489945179	-0.2063732972559082	0.146574403538068	0.04087263259025564	0.2279657277974628	7.948732451635206	-21.71523442994291	5.997979061581489	-5.844302955609217	-612.0395180325579	-57.18890618428014	-26.92691413573099	0.719474507130682	0.7364857005608484	-0.2608048940872532	-1.772455050734413	0.5700695989489342	-0.3122271798062037	1.828416451609776	-1.271030348573308	-1.271030348566499	-0.05133787465744286	-0.0256668799880246	-0.1829063843184413	0.5448498840128847	-3.333023905212249e-07	-6.235057931780753e-07	1.648908314433677e-06	1.424361651712253e-07	-3.93360797881252e-07	1.314065160900975e-07	-3.347136591371574e-07
0.52	-0.4637506331939846	-0.0819396041100942	0.7506898935048893	1.32285243512818	-0.3105859341390869	-0.03203573598066634	-0.3431689061926175	0.7303668415755775	0.7303668415755322	-0.1734287406559766	0.1745139460690223	0.03929350397759264	-0.04996757205131148	-0.7332418195086488	-0.2602061975896148	-0.5120165887255574	2.372970628334927	-0.02062489554200913	0.6193964754116343	-0.5841915633792401	1.77087636956179	1.770876369561865	-0.006439067620700178	0.0006184387393570669	0.2273529078753103	0.003246505736945124	-0.2630348086172794	0.01952130084368854	-0.02185289560315094	-0.2077414041564986	0.1465587385994539	0.04133866473884135	0.2342445864368881	7.688561970645747	-21.76674301981823	5.885873247048814	-5.79470377903331	-616.6835510359348	-56.84114909985603	-25.87829686819759	0.7564859790664622	0.7460926564359063	-0.2009271995414665	-1.922111692153092	0.6031477009544479	-0.4067580427022521	1.883569678987103	-1.395637048226403	-1.395637048226402	0.05769405501518315	-0.020779313860815	-0.1985904072594465	0.5812436818403651	-3.005035231059595e-07	-5.7328994109203e-07	1.512907906914351e-06	1.238415630950999e-07	-3.510974554028507e-07	1.510794237625047e-07	-3.086660180631599e-07
0.53	-0.4710437751174782	-0.08450414228188284	0.7455607609784975	1.346482103340401	-0.3107635026224557	-0.02586193254003523	-0.3489168191691778	0.7480030753371878	0.748003075337162	-0.1734931902446271	0.1745193466520417	0.04155617821947465	-0.04990765471585324	-0.7252984733275956	-0.2526866490508229	-0.5137042694156523	2.352664079547774	-0.01491362377797544	0.6152871843782101	-0.5653468928462871	1.75613699067381	1.75613699067392	-0.006456984355053993	0.0004669872556573787	0.2251328385276829	0.008710444438080785	-0.2709777112451457	0.01979613169980228	-0.02193704586956736	-0.2092955364404564	0.1467558778256247	0.04165422069689918	0.2403319107367853	7.493157239393828	-21.76632569715873	5.76787078510691	-5.753350025038241	-621.3054377698913	-56.44306031997478	-24.82940646626528	0.8264372620256281	0.7571269251380459	-0.1369072128763262	-2.129809735699004	0.5512701953248198	-0.4248311595485912	1.891536603425245	-1.548038125175312	-1.548038125170284	-0.03248819611191697	-0.01184294194371229	-0.2410779721606857	0.5249100376504532	-2.689726855535906e-07	-5.272248246847057e-07	1.38013393567886e-06	1.057733922094391e-07	-3.114095661491903e-07	1.66487455508776e-07	-2.834468288065772e-07
0.54	-0.4782548479142811	-0.08699303677377611	0.7404179079033782	1.369899729412009	-0.3108847277319447	-0.01973158531491537	-0.3544749612678135	0.7654849253467004	0.7654849253466937	-0.1735580097323116	0.1745233297449604	0.04379517921315112	-0.04979390977870359	-0.7168279941705075	-0.2450774616105404	-0.5147606984710631	2.330562200212517	-0.00935622076606217	0.6107052323093428	-0.5462373877942999	1.739999619142165	1.739999619142308	-0.006513047427457831	0.0003349407191912922	0.2226182582342034	0.01401202607522792	-0.2789206138730125	0.02007096255591639	-0.02202119613598871	-0.2108496687244136	0.1469530170517958	0.04196977665495746	0.2464192350366818	7.292912968026399	-21.76833840429238	5.654000053120172	-5.725194578156247	-626.020896022215	-56.11685016158258	-23.78095978247341	0.8619125742734562	0.7640204367340536	-0.07467687260467247	-2.281177801774085	0.5723739505303646	-0.5012902497908137	1.936536582793964	-1.675235576959623	-1.67523557695963	0.05006478740517813	-0.01689832441409592	-0.2574925964298642	0.5487722690426594	-2.388447746580436e-07	-4.85752011581498e-07	1.250929638629741e-06	8.828765583237751e-08	-2.745711145058813e-07	1.771769011240036e-07	-2.591442245394745e-07
0.55	-0.4853787121330831	-0.08940547898831311	0.7352676439600492	1.393087701585445	-0.310950970057314	-0.01364957626927479	-0.3598407655468173	0.7827986651504439	0.7827986651504726	-0.1736230356972729	0.174526129544809	0.04600768926950609	-0.04962776217849714	-0.707863105787121	-0.2374040234633747	-0.515185314181154	2.306747749679174	-0.003918302431776034	0.6056191399125456	-0.5268949287097668	1.722524302717325	1.722524302717348	-0.006490130150191516	0.0002282219388677337	0.2198376510105782	0.01918979920581383	-0.2866715389580806	0.02020529468251863	-0.02207382527688578	-0.2123872903076684	0.1470664909827282	0.04212749013732261	0.2522923447065316	7.067751876831257	-21.69802392913205	5.52926771079967	-5.615107296329604	-630.6055446279453	-55.68704659581481	-22.73387151689267	0.9260093308030936	0.7700649287310036	-0.01038841365362084	-2.474286442493591	0.5254907558005546	-0.5241019313609026	1.93738146578329	-1.817236330979021	-1.817236330996997	-0.02132834504194252	-0.007335916382777873	-0.295256705192262	0.4980611391730335	-2.134479350899009e-07	-4.401478041482202e-07	1.144833970281035e-06	7.530279198522349e-08	-2.42406854028871e-07	1.877100569390692e-07	-2.376970278259493e-07
0.5600000000000001	-0.492410480995965	-0.0917409749363738	0.7301163269609308	1.41602898770087	-0.3109636352031559	-0.007620794786949623	-0.3650122890560757	0.7999309404587925	0.7999309404588553	-0.1736877791980474	0.1745279067045468	0.04819101086965209	-0.04941068058616353	-0.6984089229864606	-0.2296882083152799	-0.514971309628941	2.281224988610663	0.001359215139422945	0.6000597196462795	-0.5073812338452214	1.703706720063172	1.703706720063075	-0.006456554590097233	0.0001304126968927556	0.2167805669924164	0.02419882450065875	-0.2944224640431499	0.02033962680912032	-0.02212645441778426	-0.2139249118909233	0.1471799649136605	0.04228520361968714	0.2581654543763805	6.836375186615703	-21.62934896462714	5.407913176959546	-5.509682958369902	-635.3003842645477	-55.32170086859901	-21.68938534969702	0.9597714577282264	0.7724958369198786	0.05304717985606581	-2.622839908807638	0.5402937979129323	-0.5959558236845586	1.970783738796465	-1.943688822822198	-1.943688822822198	0.05219644397077103	-0.01511641674437888	-0.3127879553372013	0.5150227018944603	-1.937283811146433e-07	-3.895859235188587e-07	1.066468656372822e-06	6.771897517395844e-08	-2.158516229514188e-07	1.980556649939406e-07	-2.19676320176717e-07
0.5700000000000001	-0.499345381413895	-0.09399916175814899	0.7249703344663712	1.438706769865395	-0.3109242821080785	-0.001650017991059442	-0.3699878658088006	0.8168685404141685	0.8168685404141746	-0.1737519114341892	0.1745287987868297	0.05034249016918849	-0.04914429492994417	-0.6884947916650316	-0.2219474333270296	-0.5141200722400386	2.254057232840207	0.006474443546891103	0.5940162945982934	-0.4877174199620982	1.683599854950539	1.683599854950485	-0.006376721145405452	6.062476011818314e-05	0.2134731617012198	0.02903938088599709	-0.3019441775127361	0.0202952453083894	-0.02215112873658093	-0.2154549902298779	0.1472974485711289	0.04231320036576907	0.2638085184615722	6.612944163799537	-21.50664707792293	5.278993103668694	-5.376112016939548	-639.8207747114625	-54.88617023064148	-20.64889393690758	1.018664647350246	0.7751394225199804	0.1171894087564474	-2.804904404219783	0.4914991017854058	-0.6206206624766141	1.966684723716401	-2.07615586815531	-2.076155868148841	-0.01517594825022845	-0.001239667796773398	-0.3460313198917045	0.4626708493847496	-1.744224362937653e-07	-3.401158368293474e-07	9.868300973681055e-07	6.050456512545577e-08	-1.904572745594012e-07	2.044220854269887e-07	-2.014494944321452e-07
